<svg width="24" height="24" viewBox="0 0 24 24" fill="none" xmlns="http://www.w3.org/2000/svg">
<path d="M19.9528 21C17.8695 21 15.8111 20.5457 13.7778 19.637C11.7445 18.7283 9.89447 17.441 8.22781 15.775C6.56114 14.1083 5.27381 12.2583 4.36581 10.225C3.45781 8.19167 3.00347 6.13333 3.00281 4.05C3.00281 3.75 3.10281 3.5 3.30281 3.3C3.50281 3.1 3.75281 3 4.05281 3H8.10281C8.33614 3 8.54447 3.07933 8.72781 3.238C8.91114 3.39667 9.01947 3.584 9.05281 3.8L9.70281 7.3C9.73614 7.56667 9.72781 7.79167 9.67781 7.975C9.62781 8.15833 9.53614 8.31667 9.40281 8.45L6.97781 10.9C7.31114 11.5167 7.70681 12.1123 8.16481 12.687C8.62281 13.2617 9.12714 13.816 9.67781 14.35C10.1945 14.8667 10.7361 15.346 11.3028 15.788C11.8695 16.23 12.4695 16.634 13.1028 17L15.4528 14.65C15.6028 14.5 15.7988 14.3873 16.0408 14.312C16.2828 14.2367 16.5201 14.216 16.7528 14.25L20.2028 14.95C20.4361 15.0167 20.6278 15.1377 20.7778 15.313C20.9278 15.4883 21.0028 15.684 21.0028 15.9V19.95C21.0028 20.25 20.9028 20.5 20.7028 20.7C20.5028 20.9 20.2528 21 19.9528 21Z" fill="#71AB28"/>
</svg>
