<svg width="54" height="54" viewBox="0 0 54 54" fill="none" xmlns="http://www.w3.org/2000/svg">
<circle cx="27.0028" cy="27" r="27" fill="#64569E"/>
<path d="M22.9634 20.9772C22.7544 20.9468 22.5412 20.9889 22.3593 21.0965H22.3436C21.9217 21.344 21.5414 21.6556 21.2174 22.0224C20.9474 22.334 20.8012 22.649 20.7629 22.9527C20.7404 23.1327 20.7562 23.315 20.8091 23.4871L20.8293 23.4984C21.1331 24.3905 21.5291 25.2489 22.0128 26.0566C22.6366 27.1912 23.4042 28.2405 24.2966 29.1785L24.3236 29.2167L24.3663 29.2482L24.3922 29.2786L24.4237 29.3056C25.365 30.2007 26.4168 30.9719 27.5534 31.6006C28.8528 32.3082 29.6414 32.6424 30.1151 32.7819V32.7886C30.2534 32.8314 30.3794 32.8505 30.5066 32.8505C30.9099 32.8207 31.2917 32.6567 31.5911 32.3847C31.9567 32.0607 32.2661 31.6794 32.5068 31.2552V31.2474C32.7329 30.8199 32.6564 30.4171 32.3302 30.1437C31.6749 29.5712 30.9663 29.0626 30.2141 28.625C29.7101 28.3516 29.1982 28.517 28.9912 28.7937L28.5491 29.3517C28.3218 29.6285 27.9101 29.5902 27.9101 29.5902L27.8988 29.597C24.8264 28.8129 24.0063 25.7022 24.0063 25.7022C24.0063 25.7022 23.9681 25.2792 24.2527 25.0632L24.8062 24.6177C25.0717 24.4017 25.2562 23.891 24.9716 23.387C24.5369 22.6341 24.0293 21.9257 23.4562 21.272C23.3312 21.1182 23.1559 21.0134 22.9612 20.9761L22.9634 20.9772ZM28.1553 19.625C28.0061 19.625 27.8631 19.6843 27.7576 19.7898C27.6521 19.8952 27.5928 20.0383 27.5928 20.1875C27.5928 20.3367 27.6521 20.4798 27.7576 20.5852C27.8631 20.6907 28.0061 20.75 28.1553 20.75C29.5773 20.75 30.7586 21.2146 31.6934 22.1056C32.1738 22.5927 32.5484 23.1699 32.7937 23.8021C33.0401 24.4355 33.1526 25.1116 33.1233 25.7889C33.1171 25.9381 33.1703 26.0836 33.2714 26.1935C33.3724 26.3035 33.513 26.3687 33.6622 26.375C33.8114 26.3813 33.9569 26.328 34.0669 26.227C34.1768 26.1259 34.2421 25.9853 34.2483 25.8361C34.2832 25.003 34.1449 24.1718 33.8422 23.3949C33.5382 22.6143 33.0771 21.9044 32.4877 21.3091L32.4764 21.2979C31.3166 20.1897 29.8496 19.625 28.1553 19.625Z" fill="white"/>
<path d="M28.1159 21.4745C27.9667 21.4745 27.8236 21.5338 27.7182 21.6393C27.6127 21.7448 27.5534 21.8878 27.5534 22.037C27.5534 22.1862 27.6127 22.3293 27.7182 22.4348C27.8236 22.5403 27.9667 22.5995 28.1159 22.5995H28.135C29.161 22.6726 29.908 23.0146 30.4312 23.576C30.9678 24.1543 31.2457 24.8731 31.2243 25.7619C31.2208 25.9111 31.2768 26.0555 31.3799 26.1634C31.4829 26.2713 31.6247 26.3339 31.7738 26.3373C31.923 26.3408 32.0675 26.2848 32.1754 26.1817C32.2833 26.0787 32.3458 25.9369 32.3493 25.7878C32.3763 24.6211 32.0005 23.6143 31.2558 22.811V22.8088C30.4942 21.992 29.449 21.56 28.1913 21.4756L28.1722 21.4734L28.1159 21.4745Z" fill="white"/>
<path d="M28.0945 23.3589C28.0193 23.3522 27.9434 23.3608 27.8715 23.3841C27.7997 23.4075 27.7332 23.445 27.6762 23.4946C27.6191 23.5442 27.5726 23.6047 27.5395 23.6726C27.5064 23.7405 27.4873 23.8145 27.4834 23.8899C27.4794 23.9654 27.4907 24.0409 27.5166 24.1119C27.5425 24.1829 27.5825 24.2479 27.634 24.3032C27.6856 24.3584 27.7478 24.4026 27.8169 24.4333C27.8859 24.464 27.9605 24.4804 28.036 24.4816C28.5063 24.5064 28.8067 24.6481 28.9957 24.8382C29.1858 25.0295 29.3275 25.3366 29.3534 25.817C29.3548 25.8925 29.3714 25.9669 29.4022 26.0359C29.433 26.1048 29.4773 26.1668 29.5326 26.2183C29.5878 26.2697 29.6529 26.3095 29.7239 26.3353C29.7948 26.361 29.8703 26.3722 29.9457 26.3682C30.021 26.3642 30.0949 26.3451 30.1627 26.312C30.2305 26.2788 30.291 26.2324 30.3405 26.1754C30.39 26.1184 30.4276 26.052 30.4509 25.9802C30.4742 25.9083 30.4828 25.8326 30.4762 25.7574C30.4402 25.0824 30.2287 24.4861 29.7955 24.0474C29.3602 23.6086 28.7673 23.3949 28.0945 23.3589Z" fill="white"/>
<path fill-rule="evenodd" clip-rule="evenodd" d="M21.9532 16.6819C25.533 15.8817 29.2454 15.8817 32.8252 16.6819L33.2066 16.7663C34.2531 17.0003 35.2142 17.5198 35.9832 18.2671C36.7521 19.0144 37.2989 19.9603 37.5626 20.9997C38.4713 24.5804 38.4713 28.3314 37.5626 31.9122C37.2989 32.9516 36.7521 33.8975 35.9832 34.6448C35.2142 35.3921 34.2531 35.9116 33.2066 36.1456L32.8241 36.2299C30.582 36.7313 28.2813 36.9203 25.9875 36.7913L23.0028 39.4621C22.8903 39.5628 22.7528 39.6315 22.6047 39.661C22.4566 39.6905 22.3032 39.6796 22.1607 39.6296C22.0182 39.5796 21.8917 39.4923 21.7945 39.3768C21.6972 39.2612 21.6328 39.1217 21.6078 38.9727L21.114 36.0229C20.1669 35.7283 19.3113 35.1956 18.6288 34.4759C17.9463 33.7562 17.4598 32.8735 17.2158 31.9122C16.3071 28.3314 16.3071 24.5804 17.2158 20.9997C17.4796 19.9603 18.0263 19.0144 18.7953 18.2671C19.5642 17.5198 20.5254 17.0003 21.5718 16.7663L21.9532 16.6819ZM32.4573 18.3278C29.1198 17.5817 25.6586 17.5817 22.3211 18.3278L21.9386 18.4133C21.1969 18.5794 20.5158 18.9479 19.9708 19.4777C19.4259 20.0076 19.0385 20.6781 18.8516 21.4148C18.012 24.7231 18.012 28.1888 18.8516 31.4971C19.0386 32.2339 19.4261 32.9046 19.9713 33.4344C20.5164 33.9643 21.1978 34.3326 21.9397 34.4986L22.041 34.5211C22.2048 34.5577 22.3539 34.6424 22.4693 34.7642C22.5848 34.886 22.6612 35.0395 22.689 35.2051L23.0197 37.1828L25.1257 35.2984C25.2098 35.223 25.3082 35.1652 25.4151 35.1284C25.522 35.0917 25.6351 35.0769 25.7478 35.0847C27.9968 35.2442 30.257 35.0756 32.4573 34.5841L32.8387 34.4986C33.5806 34.3326 34.262 33.9643 34.8071 33.4344C35.3523 32.9046 35.7399 32.2339 35.9268 31.4971C36.7661 28.1896 36.7661 24.7234 35.9268 21.4148C35.7399 20.6779 35.3523 20.0073 34.8071 19.4775C34.262 18.9476 33.5806 18.5792 32.8387 18.4133L32.4573 18.3278Z" fill="white"/>
</svg>
