<svg width="209" height="209" viewBox="0 0 209 209" fill="none" xmlns="http://www.w3.org/2000/svg">
<path d="M209 104.5C209 162.214 162.214 209 104.5 209C46.7862 209 0 162.214 0 104.5C0 46.7862 46.7862 0 104.5 0C162.214 0 209 46.7862 209 104.5Z" fill="white" fill-opacity="0.15"/>
<path d="M166 104.5C166 138.466 138.466 166 104.5 166C70.5345 166 43 138.466 43 104.5C43 70.5345 70.5345 43 104.5 43C138.466 43 166 70.5345 166 104.5Z" fill="white"/>
<path d="M93 84.2154L129 105L93 125.785L93 84.2154ZM92.25 126.218C92.2502 126.218 92.2504 126.217 92.2506 126.217L92.25 126.218ZM129.749 105.433L129.75 105.433L130 105L129.75 105.433C129.75 105.433 129.749 105.433 129.749 105.433Z" stroke="#71AB28" stroke-width="3"/>
<path d="M185.532 114.13C185.314 114.983 184.943 115.605 184.418 115.996C183.892 116.398 183.224 116.565 182.415 116.496C181.416 116.411 180.68 115.997 180.207 115.253C179.734 114.508 179.556 113.449 179.673 112.073L180.099 107.064L191.747 108.055L191.348 112.748C191.244 113.968 190.909 114.895 190.341 115.528C189.772 116.172 189.011 116.454 188.057 116.373C187.38 116.315 186.829 116.09 186.405 115.696C185.98 115.302 185.689 114.78 185.532 114.13ZM186.284 108.445L185.958 112.272C185.875 113.249 186.011 114.014 186.366 114.57C186.721 115.125 187.276 115.435 188.03 115.499C188.796 115.564 189.4 115.353 189.844 114.865C190.288 114.378 190.551 113.646 190.634 112.67L190.96 108.843L186.284 108.445ZM180.387 112.15C180.201 114.347 180.917 115.514 182.537 115.652C183.369 115.723 184.002 115.497 184.438 114.976C184.873 114.454 185.137 113.649 185.23 112.562L185.585 108.386L180.743 107.974L180.387 112.15Z" fill="white"/>
<path d="M189.952 123.023L189.729 123.845L179.832 121.164L187.645 131.534L187.449 132.259L176.166 129.202L176.388 128.38L186.269 131.057L178.472 120.691L178.669 119.966L189.952 123.023Z" fill="white"/>
<path d="M170.758 143.074L167.663 141.57L168.021 140.834L170.424 142.002L175.095 132.389L172.699 131.206L173.056 130.47L176.143 131.988L175.866 132.559C175.591 133.279 175.938 134.042 176.908 134.848C177.873 135.663 179.333 136.583 181.286 137.606L184.69 139.39L181.369 146.224L171.546 141.452L170.758 143.074ZM180.883 138.283C179.21 137.396 177.884 136.584 176.904 135.849C175.92 135.123 175.377 134.432 175.275 133.776L171.918 140.685L181.051 145.123L183.663 139.745L180.883 138.283Z" fill="white"/>
<path d="M164.022 152.753L163.396 152.308L168.069 145.733L177.597 152.506L173.069 158.876L172.443 158.431L176.478 152.755L172.721 150.085L169.112 155.162L168.499 154.727L172.108 149.649L168.202 146.873L164.022 152.753Z" fill="white"/>
<path d="M157.84 158.107C158.657 157.302 159.574 156.758 160.592 156.474C161.617 156.198 162.637 156.194 163.651 156.461C164.656 156.736 165.55 157.27 166.331 158.063C167.113 158.856 167.634 159.757 167.894 160.767C168.147 161.784 168.123 162.799 167.825 163.813C167.534 164.834 166.98 165.747 166.163 166.552C165.347 167.357 164.429 167.902 163.412 168.186C162.394 168.469 161.383 168.474 160.377 168.199C159.363 167.932 158.462 167.398 157.672 166.597C156.883 165.796 156.362 164.887 156.11 163.869C155.849 162.86 155.869 161.848 156.167 160.835C156.466 159.822 157.024 158.912 157.84 158.107ZM158.391 158.666C157.694 159.354 157.219 160.134 156.969 161.006C156.719 161.878 156.704 162.752 156.926 163.627C157.156 164.511 157.611 165.297 158.291 165.987C158.971 166.677 159.747 167.139 160.619 167.374C161.499 167.617 162.377 167.619 163.252 167.381C164.128 167.144 164.915 166.681 165.612 165.993C166.31 165.306 166.788 164.522 167.047 163.642C167.297 162.77 167.307 161.892 167.078 161.009C166.856 160.133 166.405 159.351 165.725 158.661C165.045 157.971 164.265 157.505 163.385 157.262C162.513 157.027 161.639 157.029 160.763 157.267C159.88 157.512 159.089 157.979 158.391 158.666Z" fill="white"/>
<path d="M142.003 170.154C143.001 169.589 144.028 169.302 145.084 169.292C146.146 169.292 147.132 169.553 148.041 170.075C148.941 170.602 149.665 171.35 150.214 172.318C150.762 173.287 151.031 174.293 151.02 175.335C150.999 176.383 150.713 177.358 150.161 178.259C149.615 179.17 148.842 179.907 147.845 180.472C146.847 181.037 145.819 181.325 144.763 181.334C143.707 181.344 142.728 181.085 141.829 180.558C140.92 180.037 140.188 179.287 139.634 178.308C139.08 177.33 138.813 176.316 138.834 175.268C138.845 174.226 139.126 173.254 139.678 172.353C140.23 171.452 141.005 170.719 142.003 170.154ZM142.39 170.837C141.537 171.32 140.876 171.95 140.408 172.727C139.94 173.504 139.699 174.344 139.685 175.247C139.678 176.16 139.912 177.037 140.39 177.88C140.867 178.723 141.496 179.371 142.277 179.825C143.064 180.288 143.911 180.518 144.818 180.516C145.725 180.514 146.605 180.272 147.458 179.789C148.31 179.307 148.976 178.674 149.454 177.892C149.922 177.115 150.161 176.27 150.168 175.357C150.182 174.454 149.95 173.581 149.472 172.738C148.995 171.895 148.363 171.242 147.577 170.779C146.795 170.326 145.951 170.1 145.044 170.102C144.127 170.109 143.242 170.355 142.39 170.837Z" fill="white"/>
<path d="M127.373 188.772C125.955 189.157 124.751 189.119 123.761 188.661C122.775 188.213 122.12 187.393 121.797 186.2C121.476 185.018 121.627 183.979 122.25 183.084C122.875 182.199 123.897 181.565 125.316 181.18L128.539 180.307L127.539 176.616L128.361 176.393L131.419 187.676L127.373 188.772ZM125.517 181.922C124.313 182.248 123.466 182.76 122.974 183.459C122.483 184.157 122.37 184.995 122.635 185.973C122.9 186.951 123.421 187.617 124.197 187.972C124.977 188.337 125.969 188.357 127.172 188.031L130.396 187.157L128.74 181.048L125.517 181.922Z" fill="white"/>
<path d="M108.755 180.828L108.669 180.065L116.685 179.165L117.989 190.782L110.222 191.654L110.137 190.89L117.057 190.114L116.543 185.533L110.353 186.228L110.269 185.481L116.459 184.786L115.924 180.023L108.755 180.828Z" fill="white"/>
<path d="M100.516 186C99.733 185.791 99.1286 185.428 98.703 184.91C98.2662 184.392 98.0615 183.777 98.089 183.065C98.1152 182.386 98.344 181.799 98.7754 181.303C99.2068 180.807 99.7669 180.439 100.456 180.198C101.145 179.957 101.884 179.852 102.674 179.883C103.442 179.912 104.193 180.075 104.928 180.371C105.652 180.666 106.293 181.086 106.852 181.632L106.478 182.219C105.985 181.721 105.415 181.337 104.768 181.066C104.109 180.807 103.435 180.664 102.745 180.637C102.089 180.612 101.473 180.694 100.897 180.884C100.321 181.084 99.8588 181.378 99.5096 181.766C99.1599 182.165 98.9744 182.642 98.9529 183.198C98.9241 183.944 99.1912 184.528 99.7543 184.951C100.317 185.385 101.121 185.622 102.167 185.662L104.57 185.755L104.541 186.489L102.172 186.398C101.282 186.363 100.579 186.526 100.064 186.885C99.5483 187.255 99.2774 187.779 99.2512 188.458C99.222 189.214 99.5161 189.822 100.133 190.28C100.739 190.749 101.509 191.002 102.444 191.038C103.011 191.06 103.587 190.998 104.172 190.854C104.746 190.709 105.301 190.474 105.837 190.149L106.127 190.879C105.535 191.213 104.923 191.456 104.294 191.61C103.653 191.764 103.021 191.829 102.398 191.805C101.641 191.775 100.956 191.621 100.343 191.341C99.7185 191.072 99.2318 190.691 98.8832 190.198C98.523 189.716 98.3551 189.158 98.3796 188.524C98.4041 187.89 98.6087 187.352 98.9934 186.91C99.367 186.468 99.8746 186.164 100.516 186Z" fill="white"/>
<path d="M92.0693 190.863L91.2352 190.691L93.31 180.649L83.4341 189.079L82.6982 188.927L85.0636 177.479L85.8977 177.651L83.8262 187.677L93.6988 179.263L94.4347 179.415L92.0693 190.863Z" fill="white"/>
<path d="M70.8999 172.907L72.2163 169.728L72.9723 170.041L71.9498 172.51L81.8244 176.6L82.8623 174.138L83.6183 174.451L82.2864 177.623L81.7001 177.38C80.9648 177.148 80.224 177.54 79.4777 178.556C78.721 179.568 77.8901 181.08 76.9848 183.091L75.407 186.595L68.3869 183.687L72.5662 173.597L70.8999 172.907ZM76.2852 182.729C77.0712 181.006 77.8022 179.634 78.4784 178.612C79.1442 177.586 79.8015 177.003 80.4504 176.862L73.3531 173.923L69.4677 183.303L74.9913 185.591L76.2852 182.729Z" fill="white"/>
<path d="M60.8325 166.752L61.2401 166.1L68.077 170.38L61.8742 180.289L55.2496 176.142L55.6572 175.491L61.5599 179.186L64.0056 175.279L58.7257 171.974L59.1245 171.337L64.4044 174.642L66.9475 170.58L60.8325 166.752Z" fill="white"/>
<path d="M44.036 166.816L51.7759 158.055L52.4142 158.619L48.7322 162.787L54.5893 167.961L58.2713 163.794L58.9096 164.358L51.1696 173.118L50.5314 172.554L54.0917 168.524L48.2346 163.35L44.6742 167.38L44.036 166.816Z" fill="white"/>
<path d="M41.277 146.495L44.1097 144.289L44.6023 144.921L42.3757 146.655L48.7175 154.798L39.4949 161.981L38.9716 161.309L47.5881 154.598L42.96 148.656L34.3434 155.367L33.8201 154.695L42.4366 147.984L41.277 146.495Z" fill="white"/>
<path d="M30.046 148.844L29.6569 148.086L38.7778 143.401L26.0172 141.001L25.6738 140.332L36.0722 134.991L36.4614 135.748L27.3553 140.426L40.1011 142.834L40.4444 143.503L30.046 148.844Z" fill="white"/>
<path d="M23.2241 134.238L22.9827 133.421L32.8161 130.515L20.725 125.782L20.512 125.061L31.7226 121.748L31.964 122.565L22.1467 125.466L34.2218 130.204L34.4348 130.925L23.2241 134.238Z" fill="white"/>
<path d="M26.8621 112.486C26.8889 112.774 26.8117 113.028 26.6307 113.246C26.4497 113.464 26.2095 113.587 25.9102 113.614C25.622 113.641 25.3688 113.564 25.1508 113.383C24.9327 113.202 24.8103 112.967 24.7836 112.679C24.7568 112.391 24.8339 112.138 25.015 111.92C25.196 111.702 25.4306 111.579 25.7188 111.553C26.0182 111.525 26.2768 111.601 26.4949 111.782C26.713 111.963 26.8354 112.198 26.8621 112.486Z" fill="white"/>
<path d="M24.5763 94.9503C24.8039 94.0999 25.1825 93.4822 25.7118 93.0971C26.2423 92.701 26.912 92.5421 27.721 92.6203C28.7183 92.7167 29.4492 93.1397 29.9136 93.8893C30.378 94.6389 30.5438 95.7007 30.4109 97.0749L29.9271 102.078L18.2914 100.953L18.7446 96.2655C18.8625 95.0466 19.209 94.1237 19.7841 93.497C20.3603 92.8593 21.1249 92.5865 22.078 92.6786C22.7539 92.744 23.302 92.9759 23.722 93.3745C24.1421 93.773 24.4268 94.2983 24.5763 94.9503ZM23.759 100.626L24.1287 96.8029C24.223 95.8278 24.0959 95.0605 23.7473 94.501C23.3987 93.9416 22.8477 93.6255 22.0941 93.5526C21.3295 93.4787 20.7225 93.6828 20.2732 94.1651C19.8239 94.6474 19.5521 95.3761 19.4578 96.3513L19.0881 100.174L23.759 100.626ZM29.6977 96.9891C29.9099 94.795 29.207 93.6197 27.5891 93.4632C26.758 93.3828 26.1217 93.6009 25.6803 94.1175C25.2388 94.6341 24.9656 95.4354 24.8606 96.5214L24.4572 100.694L29.2943 101.161L29.6977 96.9891Z" fill="white"/>
<path d="M20.2341 86.0942L20.4662 85.2747L30.3319 88.0691L22.6371 77.6103L22.8419 76.8873L34.0894 80.073L33.8573 80.8925L24.0077 78.1027L31.6865 88.5569L31.4817 89.2799L20.2341 86.0942Z" fill="white"/>
<path d="M39.5965 66.343L42.6738 67.8807L42.3081 68.6127L39.9179 67.4183L35.1404 76.9791L37.5231 78.1885L37.1574 78.9205L34.0874 77.3678L34.3711 76.8001C34.6547 76.0831 34.316 75.3164 33.3548 74.5001C32.3987 73.6738 30.9495 72.7381 29.0075 71.693L25.6238 69.8715L29.0203 63.0744L38.7903 67.9563L39.5965 66.343ZM29.4181 71.0207C31.0813 71.9265 32.3984 72.7527 33.3695 73.4993C34.3456 74.2359 34.881 74.9329 34.9758 75.5901L38.4096 68.7182L29.3268 64.1796L26.6544 69.5277L29.4181 71.0207Z" fill="white"/>
<path d="M46.5942 56.5085L47.2137 56.9627L42.4451 63.4682L33.0168 56.5571L37.6374 50.2536L38.2569 50.7077L34.1399 56.3243L37.8573 59.0493L41.54 54.0253L42.1461 54.4696L38.4634 59.4936L42.329 62.3271L46.5942 56.5085Z" fill="white"/>
<path d="M52.6449 51.4108C51.8194 52.2068 50.8963 52.7412 49.8757 53.014C48.8473 53.2788 47.8277 53.272 46.8171 52.9938C45.8144 52.7079 44.9267 52.1643 44.1539 51.3628C43.3811 50.5614 42.87 49.6545 42.6207 48.6422C42.3794 47.6221 42.4136 46.607 42.7233 45.5969C43.0252 44.5788 43.5889 43.6717 44.4144 42.8757C45.2398 42.0797 46.1629 41.5453 47.1836 41.2725C48.2042 40.9998 49.2159 41.0063 50.2186 41.2923C51.2292 41.5705 52.1248 42.1143 52.9054 42.9237C53.6859 43.7331 54.1968 44.6479 54.4381 45.668C54.6874 46.6804 54.6573 47.6916 54.3476 48.7017C54.0379 49.7118 53.4703 50.6148 52.6449 51.4108ZM52.1 50.8458C52.8053 50.1657 53.2878 49.3911 53.5477 48.5218C53.8076 47.6525 53.8313 46.779 53.619 45.9011C53.3988 45.0153 52.9526 44.2237 52.2803 43.5265C51.6079 42.8293 50.837 42.3586 49.9674 42.1144C49.0901 41.8623 48.2124 41.8503 47.3343 42.0784C46.4562 42.3065 45.6645 42.7606 44.9592 43.4407C44.254 44.1208 43.7674 44.8993 43.4995 45.7763C43.2396 46.6456 43.2197 47.5232 43.4399 48.409C43.6523 49.2869 44.0946 50.0744 44.767 50.7716C45.4393 51.4689 46.2141 51.9436 47.0914 52.1957C47.961 52.4398 48.8348 52.4478 49.7129 52.2197C50.5991 51.9839 51.3948 51.5259 52.1 50.8458Z" fill="white"/>
<path d="M68.706 39.4437C67.6999 39.9938 66.6686 40.2659 65.6121 40.2599C64.5503 40.2442 63.5686 39.9689 62.6671 39.434C61.7753 38.8939 61.0623 38.1354 60.5282 37.1585C59.994 36.1817 59.7402 35.1722 59.7666 34.1299C59.8028 33.0823 60.1035 32.1121 60.6685 31.2194C61.2282 30.317 62.0111 29.5906 63.0173 29.0405C64.0234 28.4903 65.0547 28.2182 66.1112 28.2242C67.1677 28.2302 68.1418 28.5033 69.0336 29.0434C69.9351 29.5783 70.6556 30.339 71.1951 31.3256C71.7346 32.3122 71.9863 33.3293 71.9501 34.3769C71.9236 35.4192 71.6279 36.3867 71.0628 37.2794C70.4977 38.1721 69.7122 38.8935 68.706 39.4437ZM68.3294 38.755C69.189 38.2849 69.8588 37.6649 70.3387 36.8949C70.8186 36.125 71.0718 35.2886 71.0984 34.3858C71.1196 33.4733 70.8979 32.5921 70.4332 31.7422C69.9685 30.8924 69.3489 30.2351 68.5745 29.7703C67.7948 29.2958 66.9513 29.0527 66.0441 29.0413C65.1369 29.0298 64.2535 29.2591 63.3939 29.7291C62.5343 30.1992 61.8596 30.8219 61.37 31.5972C60.8901 32.3672 60.6395 33.2084 60.6183 34.121C60.5917 35.0238 60.8107 35.9001 61.2754 36.7499C61.7402 37.5998 62.3624 38.2619 63.1421 38.7365C63.9165 39.2013 64.7574 39.4394 65.6646 39.4509C66.5815 39.457 67.4698 39.2251 68.3294 38.755Z" fill="white"/>
<path d="M83.3602 21.0342C84.7829 20.666 85.9863 20.7168 86.9704 21.1866C87.9517 21.6457 88.5972 22.4734 88.9069 23.6698C89.2137 24.8554 89.0508 25.8923 88.4182 26.7805C87.7828 27.658 86.7537 28.2808 85.331 28.649L82.0975 29.4859L83.0557 33.1882L82.2312 33.4016L79.3022 22.0845L83.3602 21.0342ZM85.1385 27.9054C86.3456 27.5929 87.1988 27.0904 87.6981 26.3977C88.1973 25.7049 88.32 24.8682 88.0662 23.8874C87.8123 22.9065 87.2991 22.2344 86.5265 21.8708C85.7511 21.4965 84.7598 21.4655 83.5527 21.7779L80.3192 22.6148L81.905 28.7422L85.1385 27.9054Z" fill="white"/>
<path d="M101.754 29.1691L101.831 29.9334L93.8051 30.7407L92.6352 19.1094L100.412 18.3272L100.488 19.0915L93.5595 19.7885L94.0208 24.3745L100.219 23.7511L100.294 24.4989L94.096 25.1223L94.5757 29.8911L101.754 29.1691Z" fill="white"/>
<path d="M110.324 24.0502C111.105 24.2678 111.705 24.6379 112.124 25.1606C112.555 25.6838 112.753 26.3013 112.717 27.0129C112.683 27.6912 112.447 28.2758 112.01 28.7666C111.573 29.2574 111.009 29.6192 110.317 29.8521C109.625 30.0849 108.885 30.1815 108.095 30.1418C107.328 30.1033 106.579 29.9319 105.847 29.6276C105.127 29.3239 104.49 28.8963 103.938 28.3446L104.319 27.7618C104.806 28.2656 105.372 28.6563 106.016 28.9338C106.671 29.2008 107.343 29.3516 108.033 29.3862C108.689 29.4192 109.306 29.3442 109.883 29.1615C110.462 28.9675 110.928 28.6788 111.281 28.2953C111.636 27.9006 111.827 27.4253 111.855 26.8693C111.892 26.1243 111.632 25.5372 111.074 25.1078C110.516 24.6674 109.715 24.4209 108.669 24.3684L106.268 24.2479L106.304 23.514L108.673 23.6329C109.562 23.6776 110.267 23.5234 110.786 23.1705C111.306 22.8064 111.583 22.2853 111.617 21.607C111.655 20.8509 111.368 20.2401 110.756 19.7746C110.156 19.2986 109.389 19.0371 108.455 18.9902C107.887 18.9617 107.311 19.0164 106.724 19.1541C106.149 19.2925 105.591 19.5208 105.051 19.8393L104.77 19.1062C105.366 18.7794 105.98 18.5427 106.612 18.396C107.254 18.25 107.887 18.1925 108.51 18.2238C109.266 18.2618 109.949 18.4243 110.559 18.7113C111.18 18.9877 111.662 19.3742 112.005 19.8708C112.36 20.3568 112.521 20.9166 112.49 21.5505C112.458 22.1843 112.247 22.7199 111.857 23.1574C111.478 23.5954 110.967 23.893 110.324 24.0502Z" fill="white"/>
<path d="M118.616 19.2221L119.448 19.404L117.259 29.4213L127.23 21.1051L127.965 21.2655L125.468 32.6859L124.636 32.504L126.822 22.503L116.854 30.803L116.12 30.6425L118.616 19.2221Z" fill="white"/>
<path d="M139.692 37.4066L138.34 40.57L137.587 40.2484L138.637 37.7914L128.809 33.5911L127.744 36.0416L126.991 35.72L128.359 32.5632L128.942 32.8126C129.675 33.053 130.42 32.6693 131.178 31.6613C131.946 30.6576 132.793 29.1554 133.721 27.1546L135.338 23.6686L142.325 26.6547L138.033 36.6978L139.692 37.4066ZM134.417 27.5245C133.611 29.2386 132.865 30.6026 132.178 31.6164C131.5 32.6345 130.836 33.2105 130.186 33.3441L137.25 36.3631L141.24 27.0264L135.743 24.6769L134.417 27.5245Z" fill="white"/>
<path d="M149.645 43.6092L149.23 44.2558L142.441 39.9008L148.752 30.0611L155.331 34.2808L154.916 34.9274L149.055 31.1675L146.566 35.0472L151.809 38.4103L151.403 39.0429L146.16 35.6798L143.573 39.714L149.645 43.6092Z" fill="white"/>
<path d="M166.707 43.9395L158.84 52.5867L158.21 52.0136L161.953 47.9L156.171 42.6407L152.429 46.7543L151.799 46.1812L159.666 37.534L160.296 38.1071L156.677 42.0848L162.458 47.3441L166.077 43.3664L166.707 43.9395Z" fill="white"/>
<path d="M169.215 64.2944L166.35 66.4591L165.867 65.8196L168.118 64.118L161.896 55.8841L171.222 48.8361L171.736 49.5156L163.022 56.1005L167.563 62.1093L176.277 55.5245L176.79 56.204L168.077 62.7888L169.215 64.2944Z" fill="white"/>
<path d="M180.557 62.19L180.935 62.9533L171.745 67.5027L184.469 70.0923L184.802 70.7658L174.326 75.9523L173.948 75.189L183.122 70.6471L170.414 68.0501L170.08 67.3766L180.557 62.19Z" fill="white"/>
<path d="M187.186 76.9196L187.415 77.74L177.538 80.4969L189.556 85.4125L189.758 86.1364L178.499 89.2795L178.27 88.4591L188.13 85.7067L176.128 80.7866L175.926 80.0627L187.186 76.9196Z" fill="white"/>
<path d="M183.215 98.3846C183.192 98.0961 183.272 97.8438 183.456 97.6279C183.639 97.4119 183.881 97.2918 184.18 97.2674C184.469 97.244 184.721 97.3241 184.937 97.5076C185.153 97.6911 185.273 97.9272 185.296 98.2157C185.32 98.5042 185.239 98.7564 185.056 98.9724C184.872 99.1883 184.636 99.308 184.348 99.3315C184.048 99.3558 183.79 99.2762 183.574 99.0926C183.359 98.9091 183.239 98.6731 183.215 98.3846Z" fill="white"/>
</svg>
