<svg width="54" height="54" viewBox="0 0 54 54" fill="none" xmlns="http://www.w3.org/2000/svg">
<circle cx="27.0028" cy="27" r="27" fill="#00BBF0"/>
<path d="M37.0609 17.66C36.935 17.5513 36.7819 17.479 36.6179 17.4509C36.454 17.4228 36.2855 17.4399 36.1306 17.5005L15.5479 25.5554C15.2562 25.6689 15.0093 25.874 14.8442 26.1399C14.6792 26.4059 14.605 26.7182 14.6329 27.0299C14.6607 27.3417 14.7891 27.6359 14.9986 27.8684C15.2082 28.1009 15.4876 28.259 15.7947 28.319L21.1278 29.3661V35.3126C21.1267 35.6365 21.223 35.9532 21.4041 36.2218C21.5852 36.4903 21.8427 36.6983 22.1434 36.8187C22.4436 36.9413 22.7738 36.9707 23.0909 36.9032C23.4081 36.8356 23.6976 36.6742 23.9218 36.4399L26.4933 33.7729L30.5731 37.3438C30.8674 37.6049 31.2471 37.7494 31.6405 37.7501C31.8129 37.7499 31.9843 37.7228 32.1483 37.6698C32.4164 37.5848 32.6575 37.431 32.8476 37.2237C33.0378 37.0165 33.1703 36.763 33.232 36.4887L37.3544 18.5547C37.3913 18.393 37.3835 18.2243 37.3318 18.0667C37.2801 17.909 37.1864 17.7684 37.0609 17.66ZM30.8514 21.3162L21.7524 27.8325L16.7149 26.8443L30.8514 21.3162ZM22.7528 35.3126V30.4904L25.2705 32.6983L22.7528 35.3126ZM31.6426 36.1251L23.2454 28.7618L35.3313 20.0995L31.6426 36.1251Z" fill="white"/>
</svg>
