<svg width="54" height="54" viewBox="0 0 54 54" fill="none" xmlns="http://www.w3.org/2000/svg">
<circle cx="27.0028" cy="27" r="27" fill="#00AC10"/>
<path d="M35.5053 18.4921C34.3996 17.3808 33.0826 16.4997 31.6311 15.9001C30.1796 15.3006 28.6226 14.9946 27.051 15.0001C20.4661 15.0001 15.0993 20.3401 15.0993 26.892C15.0993 28.992 15.6541 31.032 16.6912 32.832L15.0028 39L21.3345 37.344C23.0832 38.292 25.049 38.796 27.051 38.796C33.636 38.796 39.0028 33.456 39.0028 26.904C39.0028 23.724 37.7606 20.7361 35.5053 18.4921ZM27.051 36.78C25.2661 36.78 23.5174 36.3 21.9857 35.4L21.6239 35.184L17.8611 36.168L18.8621 32.52L18.6209 32.148C17.6292 30.5724 17.1027 28.7511 17.1013 26.892C17.1013 21.4441 21.5636 17.0041 27.039 17.0041C29.6923 17.0041 32.1887 18.0361 34.0581 19.9081C34.9837 20.8248 35.7172 21.9152 36.2161 23.1162C36.7151 24.3171 36.9695 25.6046 36.9646 26.904C36.9887 32.352 32.5264 36.78 27.051 36.78ZM32.5023 29.388C32.2008 29.244 30.7294 28.524 30.4641 28.416C30.1867 28.32 29.9938 28.272 29.7887 28.56C29.5837 28.86 29.0169 29.532 28.848 29.724C28.6792 29.928 28.4983 29.952 28.1968 29.796C27.8953 29.652 26.9304 29.328 25.7968 28.32C24.9043 27.528 24.3134 26.556 24.1325 26.256C23.9636 25.956 24.1083 25.8 24.2651 25.644C24.3978 25.512 24.5666 25.296 24.7114 25.128C24.8561 24.96 24.9164 24.828 25.0129 24.636C25.1093 24.432 25.0611 24.264 24.9887 24.12C24.9164 23.976 24.3134 22.512 24.0722 21.9121C23.8309 21.3361 23.5777 21.4081 23.3968 21.3961H22.8179C22.6129 21.3961 22.2993 21.4681 22.0219 21.7681C21.7566 22.068 20.9847 22.788 20.9847 24.252C20.9847 25.716 22.0581 27.132 22.2028 27.324C22.3475 27.528 24.3134 30.528 27.3043 31.812C28.0159 32.124 28.5706 32.304 29.0048 32.436C29.7164 32.664 30.3676 32.628 30.8862 32.556C31.4651 32.472 32.6591 31.836 32.9003 31.14C33.1536 30.444 33.1536 29.856 33.0691 29.724C32.9847 29.592 32.8038 29.532 32.5023 29.388Z" fill="white"/>
</svg>
